<?xml version="1.0" encoding="utf-8"?>
<!-- Designed by Vexels.com - 2016 All Rights Reserved - https://vexels.com/terms-and-conditions/  -->

<svg version="1.0" id="Capa_1" xmlns="http://www.w3.org/2000/svg" xmlns:xlink="http://www.w3.org/1999/xlink" x="0px" y="0px"
	 width="1200px" height="1200px" viewBox="0 0 1200 1200" enable-background="new 0 0 1200 1200" xml:space="preserve">
<g>
	<path fill="#1A1A1A" d="M170.621,1100h858.738c23.001,0,44.007-11.698,56.106-31.243c12.098-19.544,13.229-43.476,2.991-64.083
		L656.894,136.561c-11.102-22.402-33.571-36.428-58.566-36.562h-0.465c-24.863,0-47.265,13.694-58.699,35.765
		c-102.639,199.562-333.445,674.6-427.907,869.506c-9.971,20.608-8.708,44.407,3.457,63.752
		C126.813,1088.433,147.753,1100,170.621,1100z M619.469,515.143c-2.327-34.834,6.581-62.553,26.391-82.363
		c7.778-7.777,16.486-13.428,24.529-17.484c-15.09,34.436-7.711,83.031,22.269,137.474
		c74.188,135.013,45.005,237.652,34.302,265.904l-20.541,54.177l41.614-40.285c14.293-13.759,25.194-31.51,33.504-49.258
		c-0.333,4.72-0.598,9.638-0.997,14.891c-4.121,54.444-47.198,135.943-117.131,164.795c24.795-51.519,30.978-136.143-0.2-219.704
		l-28.85-77.311l3.789,82.43c5.849,129.03-64.283,220.435-132.62,231.138c-39.42,6.049-69.269-17.152-81.899-63.951
		c-25.594-94.662,33.703-199.826,76.979-276.673l3.59-6.381c22.136-39.222,24.795-68.072,21.006-87.948
		c5.252,4.387,9.64,9.772,13.229,16.353c18.015,33.039,10.037,85.09-5.917,122.049c-8.974,20.674-13.229,47.465,1.662,60.56
		c7.18,6.315,20.341,11.034,42.677-2.327C614.682,718.693,628.177,646.833,619.469,515.143z"/>
</g>
</svg>
